<svg id="Layer_1" data-name="Layer 1" xmlns="http://www.w3.org/2000/svg" viewBox="0 0 73.88 73.33"><defs><style>.cls-1{fill:#fefe02;}.cls-2{fill:#5a1716;}.cls-3{fill:#f28618;}.cls-4{fill:#24642f;}</style></defs><path class="cls-1" d="M68.15,36.65A31.22,31.22,0,1,1,37,5.45,31.19,31.19,0,0,1,68.15,36.65Zm-30,3.66A2.1,2.1,0,0,0,38.53,42a1.64,1.64,0,0,1,.19.87c0,.35,0,.7,0,1a3.77,3.77,0,0,0,1.17,2.13,1.31,1.31,0,0,1,.39,1.27c-.09.48-.14,1-.22,1.45a16.54,16.54,0,0,1-.41,2.12,2.12,2.12,0,0,0,.11,1.81c.35.65.74,1.28,1,1.94a5.83,5.83,0,0,1,.48,1.5,13,13,0,0,1,.09,2.16A2.8,2.8,0,0,0,43,60.75a2,2,0,0,0,1.59.1c.39-.17.84-.23,1.06-.62a3.42,3.42,0,0,1,1.6-1.29A3.31,3.31,0,0,0,49,57.12c.28-.71.55-1.42.78-2.14A4.11,4.11,0,0,1,51,53a4.81,4.81,0,0,0,1.71-2.91,6,6,0,0,0-.22-2.6,1.78,1.78,0,0,1,.06-1.36A13.53,13.53,0,0,1,55.66,42a7,7,0,0,0,1.24-1.42,4,4,0,0,0,.6-2.85A.86.86,0,0,0,56.19,37c-.18.08-.35.17-.53.24a1,1,0,0,1-1.46-.44c-.28-.4-.56-.8-.87-1.17a10.88,10.88,0,0,1-2.51-5A1.87,1.87,0,0,0,50,29.37a1.62,1.62,0,0,1-.7-1.28,1.26,1.26,0,0,0-.41-.69A1.76,1.76,0,0,0,47,27.19a1.74,1.74,0,0,1-2-.31,1,1,0,0,0-.77-.2,9.7,9.7,0,0,0-1.37.58c-.12.06-.28.17-.38.14-.54-.2-1.08-.4-1.6-.65a1.19,1.19,0,0,1-.73-1.36,1.6,1.6,0,0,0,0-.57.72.72,0,0,0-.22-.44c-.05-.05-.29.05-.38.15a.83.83,0,0,0-.15.44,4.32,4.32,0,0,1,0,.62,1.56,1.56,0,0,0,.75,1.76,3,3,0,0,0,3.56.3.64.64,0,0,1,.87.08,2.11,2.11,0,0,0,1.74.6,7.94,7.94,0,0,0,1.06-.21c.6-.16.75-.09.89.53a3,3,0,0,0,.91,1.63A2.47,2.47,0,0,1,50,31.77a8.1,8.1,0,0,0,1.38,3.15c.69,1,1.44,1.92,2.14,2.9a1.37,1.37,0,0,0,1.12.65c.64,0,1.27-.06,1.92-.09a3.81,3.81,0,0,1-1.37,2.69,14.69,14.69,0,0,0-2.78,3.31,4.67,4.67,0,0,0-.59,4.17A3.94,3.94,0,0,1,52,50a3.68,3.68,0,0,1-1.4,2.5,4.1,4.1,0,0,0-1.3,1.93c-.18.59-.32,1.2-.5,1.79a3.92,3.92,0,0,1-2.22,2.67,2.15,2.15,0,0,0-.73.61c-1.06,1.32-1.48,1.44-3,.73-.15-.07-.36-.12-.42-.25a2.87,2.87,0,0,1-.6-1.82,9,9,0,0,0,0-1,5,5,0,0,0-.5-2.32c-.38-.79-.75-1.58-1.13-2.36a1.21,1.21,0,0,1,0-1.11,4.94,4.94,0,0,0,.34-1.07c.17-.82.29-1.65.48-2.46a2.48,2.48,0,0,0-.58-2.44,2.67,2.67,0,0,1-.74-2.24A2.9,2.9,0,0,0,38.16,40.31ZM32.57,28.8A7.2,7.2,0,0,0,39,24.9a7,7,0,0,0-.5-7.74,7.19,7.19,0,0,0-5.92-3.08v1.48a.72.72,0,0,0,.29-.34.65.65,0,0,1,.84-.43,6.74,6.74,0,0,1,3.84,2.07c.26.3.49.63.76,1-1.87,0-3.65,0-5.43,0-.24,0-.34.07-.32.3s0,.27,0,.4a3,3,0,0,1,2.92,2.67c.06,1.74-.81,2.66-2.89,3.08-.15.7-.12.75.51.89a1.44,1.44,0,0,1,.3.12,8.3,8.3,0,0,0-.82,1.63A8.25,8.25,0,0,0,32.57,28.8ZM20.72,32.25a4.52,4.52,0,0,0-.53,3,8.71,8.71,0,0,0,10,7.23,9.77,9.77,0,0,0,6.83-5c.24-.39.13-.58-.32-.58-1,0-1.92,0-2.87,0a3.41,3.41,0,0,0-.76.2l0,.18h3.35c-.15.24-.22.38-.31.52A8.55,8.55,0,0,1,25.28,41a7.61,7.61,0,0,1-4.65-8.07ZM32.21,13h-.1a.64.64,0,0,0-.06.18c0,.51-.1,1-.13,1.53-.1,1.63-.22,3.27-.29,4.91-.05,1.32,0,2.65-.05,4,0,.53-.12.63-.65.63s-1,0-1.5,0c-1.12.05-1.3.36-.77,1.36a4.54,4.54,0,0,0,2.77,2.15.61.61,0,0,1,.48.64c0,.53,0,1.06,0,1.59,0,.08.11.16.16.25,0-.08.14-.16.14-.24,0-.7,0-1.4.08-2.09a.75.75,0,0,0-.54-.78,9,9,0,0,1-1.53-.89,4,4,0,0,1-.65-.85l.09-.11h1.46a2.42,2.42,0,0,0,.76-.06c.16-.06.38-.26.39-.41,0-.88.06-1.77.06-2.66q0-4.34-.08-8.67A2.57,2.57,0,0,0,32.21,13Zm-9.08.87a14.92,14.92,0,0,0,2,10.81,16.4,16.4,0,0,0,6.33,6,.54.54,0,0,0-.16-.38c-.18-.14-.41-.24-.57-.39-.9-.86-1.84-1.68-2.66-2.59a18.36,18.36,0,0,1-4.74-10.62C23.23,15.81,23.2,14.85,23.13,13.89Zm-6.6,7.57-.11,0a1.88,1.88,0,0,0-.05.33c0,.67,0,1.34,0,2a5.3,5.3,0,0,0,.76,2.56,1.67,1.67,0,0,0,2.45.72,1.56,1.56,0,0,0,.65-2.21,2.75,2.75,0,0,0-.85-.69,5.17,5.17,0,0,1-2.06-1.76c0-.07-.18-.09-.28-.13a.84.84,0,0,0,0,.31c0,.13.17.24.18.37a1.77,1.77,0,0,0,.77,1.2c.38.28.76.57,1.13.87a.67.67,0,0,1,.16.85.6.6,0,0,1-.82.2,1.52,1.52,0,0,1-.6-.52,5.68,5.68,0,0,1-.53-1.27c-.24-.83-.43-1.68-.64-2.52A2,2,0,0,0,16.53,21.46ZM28.62,36.11l.07-.08a.44.44,0,0,0-.08-.2c-.36-.41-.72-.84-1.11-1.23-2-1.94-3.68-4.17-6.33-5.3a1.09,1.09,0,0,1-.62-1.36c.05-.19.09-.38.13-.57a2.43,2.43,0,0,0,0-.27L20.52,27a2.91,2.91,0,0,1-.17.3,1.84,1.84,0,0,0,.33,2.33c2.35,1.91,4.64,3.9,7,5.85A7.06,7.06,0,0,0,28.62,36.11ZM21.46,27l-.09.13c.08.1.15.2.23.29,2.45,2.65,5,5.22,7.65,7.64a2.44,2.44,0,0,0,.56.28,1.89,1.89,0,0,0-.24-.6q-1.21-1.32-2.46-2.61c-.51-.52-1.08-1-1.54-1.53A26.7,26.7,0,0,0,22,27.24,2.56,2.56,0,0,0,21.46,27Zm6,8.74c0,.14-.06.21,0,.26a2.41,2.41,0,1,0,4-2.42,2.19,2.19,0,0,0-2.58-.48,1.44,1.44,0,0,0-.27.22l.06.12a2.06,2.06,0,0,1,.79-.16,2.13,2.13,0,0,1,1.75,1,2,2,0,0,1-.21,2,1.42,1.42,0,0,1-2.1.46c-.31-.2-.6-.44-.9-.66Zm-.57,2.22a5.17,5.17,0,0,1,.64.28,2.1,2.1,0,0,1,.69.51.6.6,0,0,1-.49,1c-.55,0-.77-.13-.93-.71-.08-.31-.11-.63-.19-.94,0-.08-.14-.2-.2-.19a.3.3,0,0,0-.23.19,5.89,5.89,0,0,0-.09,1A1.64,1.64,0,0,0,28,40.81a1.59,1.59,0,0,0,1.47-1,2,2,0,0,0-1.94-2.31C27.25,37.5,27,37.53,26.93,37.93Zm-.82-20.65a6.11,6.11,0,0,0,.23.69c.25.45.51.9.79,1.33s.54.42.9.06,1-1,1.52-1.48a2.27,2.27,0,0,0,.26-.28.37.37,0,0,0-.08-.57,2.77,2.77,0,0,0-3.11-.31A3,3,0,0,0,26.11,17.28ZM22.94,33.84c.28,0,.5,0,.72,0a3.6,3.6,0,0,1,.64.12,1.18,1.18,0,0,1-.13,2.32,1.06,1.06,0,0,1-1.27-.62c-.16-.34-.27-.71-.4-1.06a1.52,1.52,0,0,0,.16,1.78,2,2,0,0,0,1.82.63c.72-.07,1.82-1,1.48-2a3.25,3.25,0,0,0-.66-1.14,2.9,2.9,0,0,0-1-.48A1.12,1.12,0,0,0,22.94,33.84Zm20.31,5c.39,0,.83.19.94-.4,0,0,.05-.06.08-.06a3.77,3.77,0,0,1,.89,0c.13,0,.21.28.32.45h.74c-.35-.92-.68-1.81-1-2.69,0-.1-.3-.15-.45-.15s-.41.06-.45.16C43.92,37.06,43.59,38,43.25,38.86Zm-7.31-3.19c-.36-1-.69-1.83-1-2.69a.42.42,0,0,0-.33-.16c-.2,0-.52,0-.57.14-.37.87-.69,1.77-1,2.69.4,0,.83.19.94-.4,0,0,.14-.08.22-.09s.31,0,.47,0,.44,0,.5.32c0,.08.15.16.24.18A3.9,3.9,0,0,0,35.94,35.67ZM23.53,12.59a19.57,19.57,0,0,0,7.92.15A23.15,23.15,0,0,0,23.53,12.59Zm17.12,20v3.11h.67V35a3.09,3.09,0,0,0,.71.63,2.93,2.93,0,0,0,.9.1l.06-.15-1-.87.94-.89c-.71-.25-1.14.14-1.6.66V32.54Zm4.7,1.19c-.47-.07-.89.05-1.32,0a.78.78,0,0,0-.84.55,1.08,1.08,0,0,0,.22,1.22,1,1,0,0,0,1,.16.43.43,0,0,1,.19,0l.71.12v-2Zm3.78,0h-.6a1.14,1.14,0,0,1-.32,0,1,1,0,0,0-1.11.32,1.1,1.1,0,0,0,0,1.33,1,1,0,0,0,1.09.26.64.64,0,0,1,.23,0l.67.1ZM24.6,16.16l4.89-1.69C28,13.79,25.11,14.8,24.6,16.16Zm12.84,16.4a.84.84,0,0,0-1.16.78c0,.13-.14.26-.16.4a1.7,1.7,0,0,0,0,.55c0,.1.13.19.14.28,0,.36,0,.71,0,1.08H37V34.32l.46,0a1.45,1.45,0,0,0,0-.29,2.46,2.46,0,0,0,0-.26l-.43,0c0-.55,0-.59.44-.6Zm8.39,0v3.09h.65V32.54Zm2.66,3.8c-.11.24.08.53-.25.66a.69.69,0,0,0,0,.45c.3.09.17.32.18.48,0,.31,0,.61,0,.91h.71V37.53l.35-.07V37l-.35-.06,0-.53-.2,0Zm-10.08-.69v-.5c0-.78,0-.78.72-.9v-.62l-.68.25,0-.1-.73-.08v1.95Zm8.8,3.21V38.2c0-.61.15-.74.74-.7v-.67l-.71.27c-.11-.2-.17-.22-.7-.12v1.88Zm-7.07-5.12H39.5v1.91h.64Zm.12-.68V32.9c-.15-.1-.31-.28-.46-.28s-.31.2-.35.35a.31.31,0,0,0,.37.38C40,33.32,40.12,33.16,40.26,33.06Z"/><path class="cls-2" d="M38.16,40.31a2.9,2.9,0,0,1,1.46,2.81,2.67,2.67,0,0,0,.74,2.24,2.48,2.48,0,0,1,.58,2.44c-.19.81-.31,1.64-.48,2.46a4.94,4.94,0,0,1-.34,1.07,1.21,1.21,0,0,0,0,1.11c.38.78.75,1.57,1.13,2.36a5,5,0,0,1,.5,2.32,9,9,0,0,1,0,1,2.87,2.87,0,0,0,.6,1.82c.06.13.27.18.42.25,1.52.71,1.94.59,3-.73a2.15,2.15,0,0,1,.73-.61,3.92,3.92,0,0,0,2.22-2.67c.18-.59.32-1.2.5-1.79a4.1,4.1,0,0,1,1.3-1.93A3.68,3.68,0,0,0,52,50a3.94,3.94,0,0,0-.13-1.45,4.67,4.67,0,0,1,.59-4.17,14.69,14.69,0,0,1,2.78-3.31,3.81,3.81,0,0,0,1.37-2.69c-.65,0-1.28.1-1.92.09a1.37,1.37,0,0,1-1.12-.65c-.7-1-1.45-1.92-2.14-2.9A8.1,8.1,0,0,1,50,31.77a2.47,2.47,0,0,0-.82-1.49,3,3,0,0,1-.91-1.63c-.14-.62-.29-.69-.89-.53a7.94,7.94,0,0,1-1.06.21,2.11,2.11,0,0,1-1.74-.6.64.64,0,0,0-.87-.08,3,3,0,0,1-3.56-.3,1.56,1.56,0,0,1-.75-1.76,4.32,4.32,0,0,0,0-.62.83.83,0,0,1,.15-.44c.09-.1.33-.2.38-.15a.72.72,0,0,1,.22.44,1.6,1.6,0,0,1,0,.57,1.19,1.19,0,0,0,.73,1.36c.52.25,1.06.45,1.6.65.1,0,.26-.08.38-.14a9.7,9.7,0,0,1,1.37-.58,1,1,0,0,1,.77.2,1.74,1.74,0,0,0,2,.31,1.76,1.76,0,0,1,1.93.21,1.26,1.26,0,0,1,.41.69,1.62,1.62,0,0,0,.7,1.28,1.87,1.87,0,0,1,.83,1.25,10.88,10.88,0,0,0,2.51,5c.31.37.59.77.87,1.17a1,1,0,0,0,1.46.44c.18-.07.35-.16.53-.24a.86.86,0,0,1,1.31.74,4,4,0,0,1-.6,2.85A7,7,0,0,1,55.66,42a13.53,13.53,0,0,0-3.07,4.09,1.78,1.78,0,0,0-.06,1.36,6,6,0,0,1,.22,2.6A4.81,4.81,0,0,1,51,53a4.11,4.11,0,0,0-1.29,2c-.23.72-.5,1.43-.78,2.14a3.31,3.31,0,0,1-1.69,1.82,3.42,3.42,0,0,0-1.6,1.29c-.22.39-.67.45-1.06.62a2,2,0,0,1-1.59-.1,2.8,2.8,0,0,1-1.64-2.42,13,13,0,0,0-.09-2.16,5.83,5.83,0,0,0-.48-1.5c-.31-.66-.7-1.29-1-1.94a2.12,2.12,0,0,1-.11-1.81,16.54,16.54,0,0,0,.41-2.12c.08-.48.13-1,.22-1.45a1.31,1.31,0,0,0-.39-1.27A3.77,3.77,0,0,1,38.73,44c0-.34,0-.69,0-1a1.64,1.64,0,0,0-.19-.87A2.1,2.1,0,0,1,38.16,40.31Z"/><path class="cls-3" d="M32.57,28.8a8.25,8.25,0,0,1,0-1.87,8.3,8.3,0,0,1,.82-1.63,1.44,1.44,0,0,0-.3-.12c-.63-.14-.66-.19-.51-.89,2.08-.42,3-1.34,2.89-3.08a3,3,0,0,0-2.92-2.67c0-.13,0-.26,0-.4s.08-.3.32-.3c1.78,0,3.56,0,5.43,0-.27-.35-.5-.68-.76-1a6.74,6.74,0,0,0-3.84-2.07.65.65,0,0,0-.84.43.72.72,0,0,1-.29.34V14.08a7.19,7.19,0,0,1,5.92,3.08A7,7,0,0,1,39,24.9,7.2,7.2,0,0,1,32.57,28.8ZM35,18.57l3.6,6a6.52,6.52,0,0,0,.23-5.77.61.61,0,0,0-.44-.24C37.23,18.56,36.09,18.57,35,18.57Zm1.32,3.48-3.39,6.1a1.32,1.32,0,0,0,.22,0,6.93,6.93,0,0,0,4.77-2.49.64.64,0,0,0,0-.82l-.42-.7Z"/><path class="cls-2" d="M20.72,32.25l-.09.64A7.61,7.61,0,0,0,25.28,41a8.55,8.55,0,0,0,10.9-3.2c.09-.14.16-.28.31-.52H33.14l0-.18a3.41,3.41,0,0,1,.76-.2c1,0,1.91,0,2.87,0,.45,0,.56.19.32.58a9.77,9.77,0,0,1-6.83,5,8.71,8.71,0,0,1-10-7.23A4.52,4.52,0,0,1,20.72,32.25Z"/><path class="cls-4" d="M32.21,13a2.57,2.57,0,0,1,.08.47q0,4.33.08,8.67c0,.89,0,1.78-.06,2.66,0,.15-.23.35-.39.41a2.42,2.42,0,0,1-.76.06H29.7l-.09.11a4,4,0,0,0,.65.85,9,9,0,0,0,1.53.89.75.75,0,0,1,.54.78c0,.69,0,1.39-.08,2.09,0,.08-.09.16-.14.24,0-.09-.16-.17-.16-.25,0-.53,0-1.06,0-1.59a.61.61,0,0,0-.48-.64,4.54,4.54,0,0,1-2.77-2.15c-.53-1-.35-1.31.77-1.36q.75,0,1.5,0c.53,0,.64-.1.65-.63,0-1.33,0-2.66.05-4,.07-1.64.19-3.28.29-4.91,0-.51.08-1,.13-1.53a.64.64,0,0,1,.06-.18Z"/><path class="cls-4" d="M23.13,13.89c.07,1,.1,1.92.2,2.87a18.36,18.36,0,0,0,4.74,10.62c.82.91,1.76,1.73,2.66,2.59.16.15.39.25.57.39a.54.54,0,0,1,.16.38,16.4,16.4,0,0,1-6.33-6A14.92,14.92,0,0,1,23.13,13.89Z"/><path class="cls-3" d="M16.53,21.46a2,2,0,0,1,.14.34c.21.84.4,1.69.64,2.52a5.68,5.68,0,0,0,.53,1.27,1.52,1.52,0,0,0,.6.52.6.6,0,0,0,.82-.2.67.67,0,0,0-.16-.85c-.37-.3-.75-.59-1.13-.87A1.77,1.77,0,0,1,17.2,23c0-.13-.15-.24-.18-.37a.84.84,0,0,1,0-.31c.1,0,.24.06.28.13a5.17,5.17,0,0,0,2.06,1.76,2.75,2.75,0,0,1,.85.69,1.56,1.56,0,0,1-.65,2.21,1.67,1.67,0,0,1-2.45-.72,5.3,5.3,0,0,1-.76-2.56c-.05-.67,0-1.34,0-2a1.88,1.88,0,0,1,.05-.33Z"/><path class="cls-4" d="M28.62,36.11a7.06,7.06,0,0,1-1-.62c-2.32-2-4.61-3.94-7-5.85a1.84,1.84,0,0,1-.33-2.33,2.91,2.91,0,0,0,.17-.3l.16.09a2.43,2.43,0,0,1,0,.27c0,.19-.08.38-.13.57a1.09,1.09,0,0,0,.62,1.36c2.65,1.13,4.37,3.36,6.33,5.3.39.39.75.82,1.11,1.23a.44.44,0,0,1,.08.2Z"/><path class="cls-4" d="M21.46,27a2.56,2.56,0,0,1,.55.27,26.7,26.7,0,0,1,3.56,3.33c.46.55,1,1,1.54,1.53q1.25,1.29,2.46,2.61a1.89,1.89,0,0,1,.24.6,2.44,2.44,0,0,1-.56-.28c-2.68-2.42-5.2-5-7.65-7.64-.08-.09-.15-.19-.23-.29Z"/><path class="cls-3" d="M27.5,35.71l.5.34c.3.22.59.46.9.66a1.42,1.42,0,0,0,2.1-.46,2,2,0,0,0,.21-2,2.13,2.13,0,0,0-1.75-1,2.06,2.06,0,0,0-.79.16l-.06-.12a1.44,1.44,0,0,1,.27-.22,2.19,2.19,0,0,1,2.58.48A2.33,2.33,0,0,1,32,36.14,2.34,2.34,0,0,1,27.46,36S27.47,35.85,27.5,35.71Z"/><path class="cls-3" d="M26.93,37.93c.05-.4.32-.43.58-.45a2,2,0,0,1,1.94,2.31,1.59,1.59,0,0,1-1.47,1,1.64,1.64,0,0,1-1.85-1.7,5.89,5.89,0,0,1,.09-1,.3.3,0,0,1,.23-.19c.06,0,.18.11.2.19.08.31.11.63.19.94.16.58.38.75.93.71a.6.6,0,0,0,.49-1,2.1,2.1,0,0,0-.69-.51A5.17,5.17,0,0,0,26.93,37.93Z"/><path class="cls-4" d="M26.11,17.28a3,3,0,0,1,.51-.56,2.77,2.77,0,0,1,3.11.31.37.37,0,0,1,.08.57,2.27,2.27,0,0,1-.26.28c-.51.49-1,1-1.52,1.48s-.63.37-.9-.06-.54-.88-.79-1.33A6.11,6.11,0,0,1,26.11,17.28Zm.38.15c.3.34.57.65.85.95s.32.12.5,0,.63-.43,1-.63.41-.23.68-.37A5.93,5.93,0,0,0,26.49,17.43Z"/><path class="cls-3" d="M22.94,33.84a1.12,1.12,0,0,1,1.36-.48,2.9,2.9,0,0,1,1,.48A3.25,3.25,0,0,1,26,35c.34,1-.76,2-1.48,2a2,2,0,0,1-1.82-.63,1.52,1.52,0,0,1-.16-1.78c.13.35.24.72.4,1.06a1.06,1.06,0,0,0,1.27.62A1.18,1.18,0,0,0,24.3,34a3.6,3.6,0,0,0-.64-.12C23.44,33.82,23.22,33.84,22.94,33.84Z"/><path class="cls-4" d="M43.25,38.86c.34-.91.67-1.8,1-2.68,0-.1.29-.15.45-.16s.41,0,.45.15c.36.88.69,1.77,1,2.69h-.74c-.11-.17-.19-.42-.32-.45a3.77,3.77,0,0,0-.89,0s-.08,0-.08.06C44.08,39.05,43.64,38.85,43.25,38.86Zm1.8-1.08L44.77,37h-.08l-.27.78Z"/><path class="cls-4" d="M35.94,35.67a3.9,3.9,0,0,1-.61,0c-.09,0-.23-.1-.24-.18-.06-.3-.24-.35-.5-.32s-.31,0-.47,0-.21.05-.22.09c-.11.59-.54.4-.94.4.35-.92.67-1.82,1-2.69,0-.11.37-.13.57-.14a.42.42,0,0,1,.33.16C35.25,33.84,35.58,34.72,35.94,35.67Zm-1.17-1.08-.33-.93-.32.93Z"/><path class="cls-4" d="M23.53,12.59a23.15,23.15,0,0,1,7.92.15A19.57,19.57,0,0,1,23.53,12.59Z"/><path class="cls-4" d="M40.65,32.54h.66v1.89c.46-.52.89-.91,1.6-.66l-.94.89,1,.87-.06.15a2.93,2.93,0,0,1-.9-.1,3.09,3.09,0,0,1-.71-.63v.7h-.67Z"/><path class="cls-4" d="M45.35,33.73v2l-.71-.12a.43.43,0,0,0-.19,0,1,1,0,0,1-1-.16,1.08,1.08,0,0,1-.22-1.22.78.78,0,0,1,.84-.55C44.46,33.78,44.88,33.66,45.35,33.73Zm-.63,1.09,0-.19c-.16-.13-.31-.33-.49-.36s-.43.14-.45.41a.37.37,0,0,0,.39.43C44.38,35.09,44.55,34.92,44.72,34.82Z"/><path class="cls-4" d="M49.13,33.73v2l-.67-.1a.64.64,0,0,0-.23,0,1,1,0,0,1-1.09-.26,1.1,1.1,0,0,1,0-1.33,1,1,0,0,1,1.11-.32,1.14,1.14,0,0,0,.32,0Zm-.58,1v-.18c-.18-.11-.34-.3-.53-.31a.36.36,0,0,0-.39.45.62.62,0,0,0,.43.38C48.21,35.1,48.38,34.88,48.55,34.76Z"/><path class="cls-4" d="M24.6,16.16c.51-1.36,3.39-2.37,4.89-1.69Z"/><path class="cls-4" d="M37.44,32.56v.52c-.44,0-.48.05-.44.6l.43,0a2.46,2.46,0,0,1,0,.26,1.45,1.45,0,0,1,0,.29l-.46,0v1.33h-.69c0-.37,0-.72,0-1.08,0-.09-.13-.18-.14-.28a1.7,1.7,0,0,1,0-.55c0-.14.15-.27.16-.4A.84.84,0,0,1,37.44,32.56Z"/><path class="cls-4" d="M45.83,32.54h.65v3.09h-.65Z"/><path class="cls-4" d="M48.49,36.34h.43l.2,0,0,.53.35.06v.5l-.35.07v1.31h-.71c0-.3,0-.6,0-.91,0-.16.12-.39-.18-.48a.69.69,0,0,1,0-.45C48.57,36.87,48.38,36.58,48.49,36.34Z"/><path class="cls-4" d="M38.41,35.65h-.67V33.7l.73.08,0,.1.68-.25v.62c-.72.12-.72.12-.72.9Z"/><path class="cls-4" d="M47.21,38.86h-.67V37c.53-.1.59-.08.7.12l.71-.27v.67c-.59,0-.73.09-.74.7Z"/><path class="cls-4" d="M40.14,33.74v1.91H39.5V33.74Z"/><path class="cls-4" d="M40.26,33.06c-.14.1-.28.26-.43.29a.31.31,0,0,1-.37-.38c0-.15.23-.35.35-.35s.31.18.46.28Z"/><path class="cls-1" d="M35,18.57c1.12,0,2.26,0,3.39,0a.61.61,0,0,1,.44.24,6.52,6.52,0,0,1-.23,5.77Z"/><path class="cls-1" d="M36.29,22.05l1.23,2.11.42.7a.64.64,0,0,1,0,.82,6.93,6.93,0,0,1-4.77,2.49,1.32,1.32,0,0,1-.22,0Z"/><path class="cls-1" d="M26.49,17.43a5.93,5.93,0,0,1,3-.06c-.27.14-.48.24-.68.37s-.65.41-1,.63-.33.2-.5,0S26.79,17.77,26.49,17.43Z"/><path class="cls-1" d="M45.05,37.78h-.63l.27-.78h.08Z"/><path class="cls-1" d="M34.77,34.59h-.65l.32-.93Z"/><path class="cls-1" d="M44.72,34.82c-.17.1-.34.27-.53.29a.37.37,0,0,1-.39-.43c0-.27.2-.46.45-.41s.33.23.49.36Z"/><path class="cls-1" d="M48.55,34.76c-.17.12-.34.34-.5.34a.62.62,0,0,1-.43-.38.36.36,0,0,1,.39-.45c.19,0,.35.2.53.31Z"/></svg>