<svg id="Layer_1" data-name="Layer 1" xmlns="http://www.w3.org/2000/svg" viewBox="0 0 150 150"><defs><style>.cls-1{fill:#fefe02;}.cls-2{fill:#5a1716;}.cls-3{fill:#f28618;}.cls-4{fill:#24642f;}</style></defs><path class="cls-1" d="M139.23,75A64.23,64.23,0,1,1,75,10.77,64.19,64.19,0,0,1,139.23,75ZM77.52,82.5a4.38,4.38,0,0,0,.75,3.57,3.41,3.41,0,0,1,.4,1.79c.07.71-.07,1.43,0,2.13a7.8,7.8,0,0,0,2.41,4.39A2.75,2.75,0,0,1,81.91,97c-.2,1-.3,2-.47,3a30,30,0,0,1-.85,4.36,4.44,4.44,0,0,0,.24,3.74c.72,1.33,1.51,2.62,2.15,4a10.91,10.91,0,0,1,1,3.07,26.31,26.31,0,0,1,.19,4.44,5.76,5.76,0,0,0,3.38,5,4.06,4.06,0,0,0,3.27.22c.8-.35,1.72-.49,2.18-1.28a7,7,0,0,1,3.29-2.65,6.82,6.82,0,0,0,3.48-3.76c.57-1.45,1.13-2.91,1.61-4.4a8.44,8.44,0,0,1,2.65-4.06,10,10,0,0,0,3.52-6,12.59,12.59,0,0,0-.45-5.35,3.72,3.72,0,0,1,.11-2.8,27.73,27.73,0,0,1,6.33-8.41,14.55,14.55,0,0,0,2.54-2.93,8.25,8.25,0,0,0,1.24-5.87,1.76,1.76,0,0,0-2.7-1.51c-.37.16-.72.34-1.09.49-1.43.56-2.11.34-3-.9-.58-.82-1.15-1.66-1.79-2.42a22.37,22.37,0,0,1-5.16-10.36A3.89,3.89,0,0,0,101.86,60a3.36,3.36,0,0,1-1.45-2.63,2.57,2.57,0,0,0-.84-1.41,3.65,3.65,0,0,0-4-.43,3.58,3.58,0,0,1-4.13-.64,2,2,0,0,0-1.59-.41,20.4,20.4,0,0,0-2.82,1.2c-.25.11-.57.34-.77.27A32.66,32.66,0,0,1,83,54.6a2.41,2.41,0,0,1-1.48-2.79,4.32,4.32,0,0,0,.1-1.18,1.56,1.56,0,0,0-.46-.91c-.1-.1-.61.11-.78.31A1.7,1.7,0,0,0,80,51a8.91,8.91,0,0,1,0,1.26,3.22,3.22,0,0,0,1.54,3.63c2.29,1.61,4.71,2.31,7.32.62a1.3,1.3,0,0,1,1.79.16,4.4,4.4,0,0,0,3.58,1.23,15,15,0,0,0,2.18-.44c1.23-.32,1.56-.16,1.84,1.1a6.05,6.05,0,0,0,1.88,3.35,5.2,5.2,0,0,1,1.68,3.07,16.75,16.75,0,0,0,2.84,6.48c1.42,2,3,4,4.39,6a2.86,2.86,0,0,0,2.32,1.34c1.3,0,2.61-.12,3.94-.19a7.8,7.8,0,0,1-2.82,5.53,30.27,30.27,0,0,0-5.71,6.81,9.64,9.64,0,0,0-1.22,8.6,8,8,0,0,1,.28,3,7.54,7.54,0,0,1-2.9,5.14,8.4,8.4,0,0,0-2.66,4c-.37,1.22-.67,2.46-1,3.68a8.15,8.15,0,0,1-4.57,5.5A4.31,4.31,0,0,0,93.23,122c-2.17,2.72-3,3-6.17,1.5-.31-.15-.73-.25-.87-.5-.64-1.17-1.44-2.28-1.23-3.75a17.1,17.1,0,0,0,0-2.15,10.4,10.4,0,0,0-1-4.78c-.79-1.61-1.54-3.25-2.34-4.86a2.45,2.45,0,0,1-.06-2.28,10.94,10.94,0,0,0,.69-2.19c.36-1.68.59-3.4,1-5.07a5.11,5.11,0,0,0-1.2-5,5.52,5.52,0,0,1-1.53-4.61C80.85,85.7,79.53,84,77.52,82.5ZM66,58.81C72,58.5,76.5,56,79.25,50.79a14.34,14.34,0,0,0-1-15.91A14.74,14.74,0,0,0,66,28.53v3a1.61,1.61,0,0,0,.6-.71A1.34,1.34,0,0,1,68.35,30a13.86,13.86,0,0,1,7.9,4.28c.55.61,1,1.3,1.57,2-3.84,0-7.51,0-11.17,0-.49,0-.69.14-.67.62,0,.28,0,.57,0,.84a6.19,6.19,0,0,1,6,5.48c.12,3.57-1.67,5.48-6,6.33-.31,1.46-.25,1.56,1.06,1.84a3.87,3.87,0,0,1,.62.24A16.87,16.87,0,0,0,66.08,55,16.73,16.73,0,0,0,66,58.81ZM41.63,65.92a9.15,9.15,0,0,0-1.09,6.17A17.91,17.91,0,0,0,61.19,87C67.6,85.82,72,82,75.26,76.6c.48-.81.26-1.19-.68-1.2-2,0-3.93,0-5.89,0a6.89,6.89,0,0,0-1.57.42l.06.36h6.89c-.29.49-.45.79-.63,1.07A17.6,17.6,0,0,1,51,83.83c-5.88-2.59-10.74-8.77-9.57-16.59C41.51,66.8,41.57,66.36,41.63,65.92ZM65.27,26.35h-.19a1.38,1.38,0,0,0-.15.36c-.09,1.05-.19,2.1-.26,3.15-.2,3.36-.45,6.72-.58,10.09C64,42.67,64,45.41,64,48.14c0,1.09-.25,1.29-1.33,1.3s-2.07,0-3.11.07c-2.3.1-2.65.74-1.58,2.79a9.35,9.35,0,0,0,5.7,4.41,1.24,1.24,0,0,1,1,1.33c0,1.09,0,2.18.08,3.26,0,.18.23.34.35.51.09-.16.27-.32.28-.49.07-1.43.09-2.86.16-4.3a1.55,1.55,0,0,0-1.12-1.6,18.92,18.92,0,0,1-3.14-1.83,7.88,7.88,0,0,1-1.34-1.75l.18-.23c1,0,2,0,3,0a5.08,5.08,0,0,0,1.57-.14c.34-.11.78-.52.8-.83.11-1.82.13-3.65.12-5.48,0-5.94-.09-11.88-.15-17.83A5.48,5.48,0,0,0,65.27,26.35ZM46.59,28.14a30.67,30.67,0,0,0,4.12,22.25,33.55,33.55,0,0,0,13,12.41,1.05,1.05,0,0,0-.34-.77c-.37-.3-.83-.48-1.17-.81-1.84-1.75-3.77-3.44-5.47-5.33A37.73,37.73,0,0,1,47,34.05C46.8,32.08,46.73,30.11,46.59,28.14ZM33,43.72l-.23,0a5.28,5.28,0,0,0-.09.68c0,1.38-.09,2.76,0,4.14a11.19,11.19,0,0,0,1.57,5.27c1.28,2.08,3.1,2.61,5.05,1.49a3.23,3.23,0,0,0,1.33-4.56,5.76,5.76,0,0,0-1.76-1.43c-1.59-1-3.27-1.86-4.23-3.6-.08-.15-.37-.19-.57-.28a1.6,1.6,0,0,0-.07.64c.07.27.35.49.39.76A3.55,3.55,0,0,0,36,49.33c.78.59,1.57,1.17,2.32,1.8a1.33,1.33,0,0,1,.33,1.73,1.21,1.21,0,0,1-1.69.41,2.78,2.78,0,0,1-1.22-1.05,12.49,12.49,0,0,1-1.11-2.61c-.49-1.72-.86-3.47-1.3-5.2A4.59,4.59,0,0,0,33,43.72ZM57.89,73.87,58,73.7a1.25,1.25,0,0,0-.16-.41c-.75-.85-1.49-1.73-2.29-2.53-4-4-7.57-8.6-13-10.92A2.23,2.23,0,0,1,41.28,57c.1-.38.19-.77.26-1.16a3.37,3.37,0,0,0,0-.55l-.33-.19c-.12.2-.22.42-.35.61a3.76,3.76,0,0,0,.69,4.79c4.83,3.94,9.53,8,14.3,12.05A18.3,18.3,0,0,0,57.89,73.87ZM43.15,55.05l-.18.28c.16.2.31.41.48.59,5,5.45,10.22,10.74,15.72,15.71a4.73,4.73,0,0,0,1.17.58,3.88,3.88,0,0,0-.5-1.23c-1.66-1.82-3.36-3.61-5.07-5.38-1-1.07-2.21-2-3.16-3.14a54,54,0,0,0-7.33-6.85A5.18,5.18,0,0,0,43.15,55.05ZM55.57,73c0,.3-.11.44-.07.55.91,2.65,2.91,4.32,6,3.6,1.77-.41,2.66-1.71,3.33-3.25a4.84,4.84,0,0,0-1.08-5.34,4.54,4.54,0,0,0-5.33-1,2.64,2.64,0,0,0-.54.47l.11.23A4.69,4.69,0,0,1,59.61,68c1.45.26,2.89.68,3.59,2.17a4,4,0,0,1-.42,4,2.9,2.9,0,0,1-4.32,1c-.64-.41-1.24-.91-1.86-1.36C56.3,73.51,56,73.31,55.57,73Zm-1.16,4.58a9.56,9.56,0,0,1,1.32.57,4.76,4.76,0,0,1,1.42,1.06,1.24,1.24,0,0,1-1,2.07c-1.12.07-1.58-.26-1.9-1.46-.17-.64-.24-1.3-.4-1.94,0-.17-.29-.41-.4-.39s-.46.23-.48.39A11.61,11.61,0,0,0,52.76,80a3.38,3.38,0,0,0,3.82,3.5,3.28,3.28,0,0,0,3-2.09,4.13,4.13,0,0,0-4-4.76C55.07,76.72,54.52,76.78,54.41,77.61ZM52.73,35.12a8.83,8.83,0,0,0,.47,1.41c.5.93,1,1.85,1.61,2.74s1.12.87,1.86.12c1-1,2.09-2,3.13-3a5,5,0,0,0,.54-.58.77.77,0,0,0-.16-1.18,5.7,5.7,0,0,0-6.4-.62A4.76,4.76,0,0,0,52.73,35.12ZM46.21,69.19c.57,0,1,0,1.46,0a7.41,7.41,0,0,1,1.33.24,2.39,2.39,0,0,1,1.82,2.33,2.42,2.42,0,0,1-2.08,2.45,2.2,2.2,0,0,1-2.63-1.29c-.33-.69-.54-1.45-.81-2.18a3.11,3.11,0,0,0,.32,3.67,4,4,0,0,0,3.74,1.29c1.48-.15,3.76-2.13,3-4.18a6.32,6.32,0,0,0-1.35-2.33,5.82,5.82,0,0,0-2.06-1A2.28,2.28,0,0,0,46.21,69.19ZM88,79.53c.81,0,1.72.39,1.94-.83a.23.23,0,0,1,.17-.13,7.37,7.37,0,0,1,1.82,0c.27.07.44.58.67.92H94.1C93.38,77.63,92.7,75.79,92,74c-.08-.2-.6-.31-.92-.31s-.83.12-.92.32C89.36,75.81,88.69,77.65,88,79.53ZM72.94,73c-.74-2-1.42-3.76-2.14-5.54a.85.85,0,0,0-.68-.31c-.4,0-1.07.06-1.17.29-.76,1.79-1.42,3.62-2.14,5.52.84,0,1.7.39,1.94-.81,0-.09.29-.17.46-.19s.64,0,1,0c.53-.05.92,0,1,.67,0,.15.31.33.49.36A8.26,8.26,0,0,0,72.94,73ZM47.41,25.47a40.31,40.31,0,0,0,16.3.3A48,48,0,0,0,47.41,25.47Zm35.24,41v6.4H84V71.48a6.63,6.63,0,0,0,1.45,1.3,5.88,5.88,0,0,0,1.85.19l.12-.3-2.09-1.79,1.93-1.82c-1.46-.53-2.35.28-3.29,1.34V66.51ZM92.3,69c-1-.14-1.82.1-2.71-.08A1.61,1.61,0,0,0,87.86,70a2.23,2.23,0,0,0,.45,2.5,2,2,0,0,0,2.14.34,1,1,0,0,1,.4-.1c.46.07.92.16,1.45.26V69Zm7.8,0H98.86a1.88,1.88,0,0,1-.67,0,2,2,0,0,0-2.28.67A2.27,2.27,0,0,0,96,72.36a2,2,0,0,0,2.24.52,1.06,1.06,0,0,1,.47-.08c.45,0,.89.12,1.39.19ZM49.62,32.81l10.05-3.47C56.58,27.93,50.66,30,49.62,32.81ZM76,66.55a1.73,1.73,0,0,0-2.39,1.6c0,.28-.29.54-.33.82a3.63,3.63,0,0,0,0,1.14c0,.21.29.39.3.59,0,.73,0,1.46,0,2.2h1.43V70.17l.94-.08c0-.23,0-.41,0-.59A3.19,3.19,0,0,0,76,69l-.87-.11c-.08-1.14,0-1.22.91-1.23Zm17.26,0v6.37h1.34V66.51Zm5.47,7.82c-.23.5.17,1.1-.51,1.37a1.35,1.35,0,0,0,0,.93c.61.18.35.64.37,1,0,.63,0,1.26,0,1.88h1.46V76.78l.72-.14v-1l-.73-.12-.06-1.09-.41-.06ZM78,72.92v-1c0-1.6,0-1.6,1.49-1.85V68.75l-1.4.51,0-.2-1.49-.15v4Zm18.12,6.59V78.17c0-1.26.3-1.54,1.51-1.45V75.34l-1.45.57c-.23-.43-.36-.46-1.44-.26v3.86ZM81.59,69H80.27v3.92h1.32Zm.24-1.4,0-.33c-.31-.21-.63-.59-.93-.59s-.66.43-.73.72a.64.64,0,0,0,.75.78C81.26,68.13,81.54,67.79,81.83,67.59Z"/><path class="cls-2" d="M77.52,82.5c2,1.5,3.33,3.2,3,5.78A5.52,5.52,0,0,0,82,92.89a5.11,5.11,0,0,1,1.2,5c-.4,1.67-.63,3.39-1,5.07a10.94,10.94,0,0,1-.69,2.19,2.45,2.45,0,0,0,.06,2.28c.8,1.61,1.55,3.25,2.34,4.86a10.4,10.4,0,0,1,1,4.78,17.1,17.1,0,0,1,0,2.15c-.21,1.47.59,2.58,1.23,3.75.14.25.56.35.87.5,3.13,1.45,4,1.22,6.17-1.5a4.31,4.31,0,0,1,1.51-1.25,8.15,8.15,0,0,0,4.57-5.5c.36-1.22.66-2.46,1-3.68a8.4,8.4,0,0,1,2.66-4,7.54,7.54,0,0,0,2.9-5.14,8,8,0,0,0-.28-3,9.64,9.64,0,0,1,1.22-8.6,30.27,30.27,0,0,1,5.71-6.81,7.8,7.8,0,0,0,2.82-5.53c-1.33.07-2.64.21-3.94.19a2.86,2.86,0,0,1-2.32-1.34c-1.44-2-3-3.95-4.39-6a16.75,16.75,0,0,1-2.84-6.48,5.2,5.2,0,0,0-1.68-3.07,6.05,6.05,0,0,1-1.88-3.35c-.28-1.26-.61-1.42-1.84-1.1a15,15,0,0,1-2.18.44,4.4,4.4,0,0,1-3.58-1.23,1.3,1.3,0,0,0-1.79-.16c-2.61,1.69-5,1-7.32-.62a3.22,3.22,0,0,1-1.54-3.63A8.91,8.91,0,0,0,80,51a1.7,1.7,0,0,1,.32-.92c.17-.2.68-.41.78-.31a1.56,1.56,0,0,1,.46.91,4.32,4.32,0,0,1-.1,1.18A2.41,2.41,0,0,0,83,54.6a32.66,32.66,0,0,0,3.31,1.33c.2.07.52-.16.77-.27a20.4,20.4,0,0,1,2.82-1.2,2,2,0,0,1,1.59.41,3.58,3.58,0,0,0,4.13.64,3.65,3.65,0,0,1,4,.43,2.57,2.57,0,0,1,.84,1.41A3.36,3.36,0,0,0,101.86,60a3.89,3.89,0,0,1,1.71,2.59,22.37,22.37,0,0,0,5.16,10.36c.64.76,1.21,1.6,1.79,2.42.89,1.24,1.57,1.46,3,.9.37-.15.72-.33,1.09-.49a1.76,1.76,0,0,1,2.7,1.51,8.25,8.25,0,0,1-1.24,5.87,14.55,14.55,0,0,1-2.54,2.93,27.73,27.73,0,0,0-6.33,8.41,3.72,3.72,0,0,0-.11,2.8,12.59,12.59,0,0,1,.45,5.35,10,10,0,0,1-3.52,6,8.44,8.44,0,0,0-2.65,4.06c-.48,1.49-1,2.95-1.61,4.4a6.82,6.82,0,0,1-3.48,3.76A7,7,0,0,0,93,123.49c-.46.79-1.38.93-2.18,1.28a4.06,4.06,0,0,1-3.27-.22,5.76,5.76,0,0,1-3.38-5,26.31,26.31,0,0,0-.19-4.44,10.91,10.91,0,0,0-1-3.07c-.64-1.37-1.43-2.66-2.15-4a4.44,4.44,0,0,1-.24-3.74,30,30,0,0,0,.85-4.36c.17-1,.27-2,.47-3a2.75,2.75,0,0,0-.81-2.61A7.8,7.8,0,0,1,78.69,90c-.09-.7,0-1.42,0-2.13a3.41,3.41,0,0,0-.4-1.79A4.38,4.38,0,0,1,77.52,82.5Z"/><path class="cls-3" d="M66,58.81A16.73,16.73,0,0,1,66.08,55a16.87,16.87,0,0,1,1.69-3.37,3.87,3.87,0,0,0-.62-.24c-1.31-.28-1.37-.38-1.06-1.84,4.29-.85,6.08-2.76,6-6.33a6.19,6.19,0,0,0-6-5.48c0-.27,0-.56,0-.84,0-.48.18-.62.67-.62,3.66,0,7.33,0,11.17,0-.55-.72-1-1.41-1.57-2A13.86,13.86,0,0,0,68.35,30a1.34,1.34,0,0,0-1.71.89,1.61,1.61,0,0,1-.6.71v-3a14.74,14.74,0,0,1,12.18,6.35,14.34,14.34,0,0,1,1,15.91C76.5,56,72,58.5,66,58.81Zm4.94-21,7.4,12.39a13.41,13.41,0,0,0,.46-11.88,1.12,1.12,0,0,0-.89-.48C75.59,37.76,73.26,37.77,71,37.77Zm2.71,7.15-7,12.55a2.76,2.76,0,0,0,.45.06A14.24,14.24,0,0,0,77,52.39a1.31,1.31,0,0,0,.12-1.68c-.29-.47-.58-1-.86-1.43C75.34,47.8,74.48,46.31,73.67,44.92Z"/><path class="cls-2" d="M41.63,65.92c-.06.44-.12.88-.19,1.32-1.17,7.82,3.69,14,9.57,16.59a17.6,17.6,0,0,0,22.43-6.58c.18-.28.34-.58.63-1.07H67.18l-.06-.36a6.89,6.89,0,0,1,1.57-.42c2,0,3.93,0,5.89,0,.94,0,1.16.39.68,1.2C72,82,67.6,85.82,61.19,87A17.91,17.91,0,0,1,40.54,72.09,9.15,9.15,0,0,1,41.63,65.92Z"/><path class="cls-4" d="M65.27,26.35a5.48,5.48,0,0,1,.17,1c.06,6,.12,11.89.15,17.83,0,1.83,0,3.66-.12,5.48,0,.31-.46.72-.8.83a5.08,5.08,0,0,1-1.57.14c-1,0-2,0-3,0l-.18.23a7.88,7.88,0,0,0,1.34,1.75,18.92,18.92,0,0,0,3.14,1.83A1.55,1.55,0,0,1,65.52,57c-.07,1.44-.09,2.87-.16,4.3,0,.17-.19.33-.28.49-.12-.17-.34-.33-.35-.51,0-1.08-.09-2.17-.08-3.26a1.24,1.24,0,0,0-1-1.33A9.35,9.35,0,0,1,58,52.3c-1.07-2-.72-2.69,1.58-2.79,1,0,2.07-.06,3.11-.07S64,49.23,64,48.14c0-2.73,0-5.47.11-8.2.13-3.37.38-6.73.58-10.09.07-1.05.17-2.1.26-3.15a1.38,1.38,0,0,1,.15-.36Z"/><path class="cls-4" d="M46.59,28.14c.14,2,.21,3.94.41,5.91a37.73,37.73,0,0,0,9.75,21.84c1.7,1.89,3.63,3.58,5.47,5.33.34.33.8.51,1.17.81a1.05,1.05,0,0,1,.34.77,33.55,33.55,0,0,1-13-12.41A30.67,30.67,0,0,1,46.59,28.14Z"/><path class="cls-3" d="M33,43.72a4.59,4.59,0,0,1,.29.69c.44,1.73.81,3.48,1.3,5.2a12.49,12.49,0,0,0,1.11,2.61,2.78,2.78,0,0,0,1.22,1.05,1.21,1.21,0,0,0,1.69-.41,1.33,1.33,0,0,0-.33-1.73c-.75-.63-1.54-1.21-2.32-1.8a3.55,3.55,0,0,1-1.57-2.47c0-.27-.32-.49-.39-.76a1.6,1.6,0,0,1,.07-.64c.2.09.49.13.57.28,1,1.74,2.64,2.61,4.23,3.6a5.76,5.76,0,0,1,1.76,1.43,3.23,3.23,0,0,1-1.33,4.56c-2,1.12-3.77.59-5.05-1.49a11.19,11.19,0,0,1-1.57-5.27c-.09-1.38,0-2.76,0-4.14a5.28,5.28,0,0,1,.09-.68Z"/><path class="cls-4" d="M57.89,73.87a18.3,18.3,0,0,1-2-1.28c-4.77-4-9.47-8.11-14.3-12.05a3.76,3.76,0,0,1-.69-4.79c.13-.19.23-.41.35-.61l.33.19a3.37,3.37,0,0,1,0,.55c-.07.39-.16.78-.26,1.16a2.23,2.23,0,0,0,1.27,2.8c5.46,2.32,9,6.92,13,10.92.8.8,1.54,1.68,2.29,2.53a1.25,1.25,0,0,1,.16.41Z"/><path class="cls-4" d="M43.15,55.05a5.18,5.18,0,0,1,1.13.56,54,54,0,0,1,7.33,6.85c1,1.13,2.13,2.07,3.16,3.14,1.71,1.77,3.41,3.56,5.07,5.38a3.88,3.88,0,0,1,.5,1.23,4.73,4.73,0,0,1-1.17-.58c-5.5-5-10.69-10.26-15.72-15.71-.17-.18-.32-.39-.48-.59Z"/><path class="cls-3" d="M55.57,73c.41.28.73.48,1,.7.62.45,1.22,1,1.86,1.36a2.9,2.9,0,0,0,4.32-1,4,4,0,0,0,.42-4c-.7-1.49-2.14-1.91-3.59-2.17A4.69,4.69,0,0,0,58,68.3l-.11-.23a2.64,2.64,0,0,1,.54-.47,4.54,4.54,0,0,1,5.33,1,4.84,4.84,0,0,1,1.08,5.34c-.67,1.54-1.56,2.84-3.33,3.25-3.08.72-5.08-1-6-3.6C55.46,73.47,55.53,73.33,55.57,73Z"/><path class="cls-3" d="M54.41,77.61c.11-.83.66-.89,1.19-.93a4.13,4.13,0,0,1,4,4.76,3.28,3.28,0,0,1-3,2.09A3.38,3.38,0,0,1,52.76,80,11.61,11.61,0,0,1,53,77.91c0-.16.29-.36.48-.39s.36.22.4.39c.16.64.23,1.3.4,1.94.32,1.2.78,1.53,1.9,1.46a1.24,1.24,0,0,0,1-2.07,4.76,4.76,0,0,0-1.42-1.06A9.56,9.56,0,0,0,54.41,77.61Z"/><path class="cls-4" d="M52.73,35.12A4.76,4.76,0,0,1,53.78,34a5.7,5.7,0,0,1,6.4.62.77.77,0,0,1,.16,1.18,5,5,0,0,1-.54.58c-1,1-2.11,2-3.13,3-.74.75-1.29.76-1.86-.12s-1.11-1.81-1.61-2.74A8.83,8.83,0,0,1,52.73,35.12Zm.78.31c.62.7,1.17,1.33,1.73,2,.35.4.67.25,1,0,.64-.46,1.31-.89,2-1.3.41-.26.86-.46,1.41-.76A12.07,12.07,0,0,0,53.51,35.43Z"/><path class="cls-3" d="M46.21,69.19a2.28,2.28,0,0,1,2.78-1,5.82,5.82,0,0,1,2.06,1,6.32,6.32,0,0,1,1.35,2.33c.72,2-1.56,4-3,4.18a4,4,0,0,1-3.74-1.29,3.11,3.11,0,0,1-.32-3.67c.27.73.48,1.49.81,2.18a2.2,2.2,0,0,0,2.63,1.29,2.42,2.42,0,0,0,2.08-2.45A2.39,2.39,0,0,0,49,69.44a7.41,7.41,0,0,0-1.33-.24C47.23,69.16,46.78,69.19,46.21,69.19Z"/><path class="cls-4" d="M88,79.53c.71-1.88,1.38-3.72,2.13-5.53.09-.2.6-.31.92-.32s.84.11.92.31c.75,1.8,1.43,3.64,2.15,5.52H92.58c-.23-.34-.4-.85-.67-.92a7.37,7.37,0,0,0-1.82,0,.23.23,0,0,0-.17.13C89.7,79.92,88.79,79.49,88,79.53ZM91.7,77.3l-.58-1.62H91l-.56,1.61Z"/><path class="cls-4" d="M72.94,73a8.26,8.26,0,0,1-1.25,0c-.18,0-.46-.21-.49-.36-.12-.62-.51-.72-1-.67-.31,0-.64,0-1,0s-.44.1-.46.19c-.24,1.2-1.1.81-1.94.81.72-1.9,1.38-3.73,2.14-5.52.1-.23.77-.27,1.17-.29a.85.85,0,0,1,.68.31C71.52,69.19,72.2,71,72.94,73Zm-2.41-2.22-.66-1.9-.66,1.9Z"/><path class="cls-4" d="M47.41,25.47a48,48,0,0,1,16.3.3A40.31,40.31,0,0,1,47.41,25.47Z"/><path class="cls-4" d="M82.65,66.51H84V70.4c.94-1.06,1.83-1.87,3.29-1.34l-1.93,1.82,2.09,1.79-.12.3a5.88,5.88,0,0,1-1.85-.19A6.63,6.63,0,0,1,84,71.48v1.43H82.65Z"/><path class="cls-4" d="M92.3,69V73c-.53-.1-1-.19-1.45-.26a1,1,0,0,0-.4.1,2,2,0,0,1-2.14-.34,2.23,2.23,0,0,1-.45-2.5,1.61,1.61,0,0,1,1.73-1.14C90.48,69.06,91.34,68.82,92.3,69ZM91,71.2l0-.39c-.33-.26-.63-.67-1-.74-.53-.1-.9.29-.92.85a.77.77,0,0,0,.8.88C90.31,71.76,90.66,71.41,91,71.2Z"/><path class="cls-4" d="M100.1,69v4c-.5-.07-.94-.15-1.39-.19a1.06,1.06,0,0,0-.47.08A2,2,0,0,1,96,72.36a2.27,2.27,0,0,1-.09-2.74A2,2,0,0,1,98.19,69a1.88,1.88,0,0,0,.67,0Zm-1.22,2.14v-.38c-.36-.23-.7-.61-1.08-.64A.74.74,0,0,0,97,71a1.19,1.19,0,0,0,.87.78C98.2,71.79,98.54,71.34,98.88,71.09Z"/><path class="cls-4" d="M49.62,32.81c1-2.79,7-4.88,10.05-3.47Z"/><path class="cls-4" d="M76,66.55v1.08c-.92,0-1,.09-.91,1.23L76,69a3.19,3.19,0,0,1,.06.53c0,.18,0,.36,0,.59l-.94.08V72.9H73.66c0-.74,0-1.47,0-2.2,0-.2-.27-.38-.3-.59a3.63,3.63,0,0,1,0-1.14c0-.28.31-.54.33-.82A1.73,1.73,0,0,1,76,66.55Z"/><path class="cls-4" d="M93.3,66.51h1.34v6.37H93.3Z"/><path class="cls-4" d="M98.77,74.33h.88l.41.06.06,1.09.73.12v1l-.72.14v2.71H98.67c0-.62,0-1.25,0-1.88,0-.34.24-.8-.37-1a1.35,1.35,0,0,1,0-.93C98.94,75.43,98.54,74.83,98.77,74.33Z"/><path class="cls-4" d="M78,72.92H76.66v-4l1.49.15,0,.2,1.4-.51V70C78,70.29,78,70.29,78,71.89Z"/><path class="cls-4" d="M96.14,79.51H94.76V75.65c1.08-.2,1.21-.17,1.44.26l1.45-.57v1.38c-1.21-.09-1.5.19-1.51,1.45Z"/><path class="cls-4" d="M81.59,69v3.92H80.27V69Z"/><path class="cls-4" d="M81.83,67.59c-.29.2-.57.54-.89.58a.64.64,0,0,1-.75-.78c.07-.29.47-.71.73-.72s.62.38.93.59Z"/><path class="cls-1" d="M71,37.77c2.3,0,4.63,0,7,0a1.12,1.12,0,0,1,.89.48,13.41,13.41,0,0,1-.46,11.88Z"/><path class="cls-1" d="M73.67,44.92c.81,1.39,1.67,2.88,2.54,4.36.28.48.57,1,.86,1.43A1.31,1.31,0,0,1,77,52.39a14.24,14.24,0,0,1-9.81,5.14,2.76,2.76,0,0,1-.45-.06Z"/><path class="cls-1" d="M53.51,35.43a12.07,12.07,0,0,1,6.15-.13c-.55.3-1,.5-1.41.76-.67.41-1.34.84-2,1.3-.36.27-.68.42-1,0C54.68,36.76,54.13,36.13,53.51,35.43Z"/><path class="cls-1" d="M91.7,77.3H90.39L91,75.69h.17Z"/><path class="cls-1" d="M70.53,70.73H69.21l.66-1.9Z"/><path class="cls-1" d="M91,71.2c-.36.21-.71.56-1.09.6a.77.77,0,0,1-.8-.88c0-.56.39-1,.92-.85.37.07.67.48,1,.74Z"/><path class="cls-1" d="M98.88,71.09c-.34.25-.68.7-1,.69A1.19,1.19,0,0,1,97,71a.74.74,0,0,1,.8-.93c.38,0,.72.41,1.08.64Z"/></svg>